<?xml version="1.0" encoding="UTF-8"?>
<!DOCTYPE svg PUBLIC "-//W3C//DTD SVG 1.1//EN" "http://www.w3.org/Graphics/SVG/1.1/DTD/svg11.dtd">
<!-- Creator: CorelDRAW (Versión de evaluación) -->
<svg xmlns="http://www.w3.org/2000/svg" xml:space="preserve" width="297mm" height="210mm" version="1.1" style="shape-rendering:geometricPrecision; text-rendering:geometricPrecision; image-rendering:optimizeQuality; fill-rule:evenodd; clip-rule:evenodd"
viewBox="0 0 29700 21000"
 xmlns:xlink="http://www.w3.org/1999/xlink"
 xmlns:xodm="http://www.corel.com/coreldraw/odm/2003">
 <defs>
  <style type="text/css">
   <![CDATA[
    .fil3 {fill:#6EBDE3}
    .fil2 {fill:#009DD5}
    .fil4 {fill:#009DD5;fill-rule:nonzero}
    .fil0 {fill:black;fill-rule:nonzero;fill-opacity:0.749020}
    .fil1 {fill:white;fill-rule:nonzero;fill-opacity:0.749020}
   ]]>
  </style>
 </defs>
<symbol id="Fm2-527-0" viewBox="31359.51 -20290.48 10185.4 7086.6">
 <polygon class="fil0" points="31359.51,-20290.48 41544.91,-20290.48 41544.91,-13203.88 31359.51,-13203.88 "/>
</symbol>
<symbol id="Fm0-523-0" viewBox="17039.52 -13521.24 16357.6 1778">
 <polygon class="fil1" points="17039.52,-13521.24 33397.12,-13521.24 33397.12,-11743.24 17039.52,-11743.24 "/>
</symbol>
<symbol id="Fm1-525-0" viewBox="21222.26 -176.4 20142.2 5257.8">
 <polygon class="fil0" points="21222.26,-176.4 41364.46,-176.4 41364.46,5081.4 21222.26,5081.4 "/>
</symbol>
<symbol id="Fm3-529-0" viewBox="16856.64 8408.63 6908.8 812.8">
 <polygon class="fil0" points="16856.64,8408.63 23765.44,8408.63 23765.44,9221.43 16856.64,9221.43 "/>
</symbol>
 <g id="Capa_x0020_1">
  <metadata id="CorelCorpID_0Corel-Layer"/>
  <path class="fil2" d="M7558.41 7370.65c317.02,0 574.11,257.09 574.11,574.11 0,208.5 -111.23,391.06 -277.56,491.61l1962.89 1582.93 -303.17 537.46 -1382.36 -1114.75 0 1881.79 745.8 2227.49 -740.32 0 -739.13 -2192.85 -75.8 0 -408.22 2192.85 -725.97 0 481.4 -2831.21 75.2 -1288.11 -908.08 612.18 -200.56 135.2 -222.29 149.85 -35.15 23.68 -949.88 -621 583.64 2227.63 -456.29 39.26 628.97 1552.52 -689.33 0 -510.99 -1503.35 -538 46.29 -361.43 1457.06 -662.37 0 472.75 -1409.63 -458.67 39.46 783.31 -2315.95 -1111.35 820.91 -313.56 -424.49 1720.73 -1271.04 9.79 -28.95c-136.5,-61.27 -249.95,-153.17 -326.74,-264.55 142.77,-70.25 246.1,-208.48 267.69,-372.43 0.67,-9.24 1.62,-18.43 2.82,-27.52 0.55,-7.47 0.96,-14.96 1.18,-22.53l2.37 0.17c39.11,-212.46 225.32,-373.47 449.08,-373.47 246.91,0 448.07,196.04 456.37,440.92 7.69,168.03 100.68,313.87 236.72,395.15 -84.6,105.14 -203.31,189.91 -343.09,243.57l1094 777.64 0.02 0 1931.27 -1301.93c-186.27,-94.9 -313.91,-288.51 -313.91,-511.86 0,-317.02 257.09,-574.11 574.11,-574.11zm33.66 1147.21l-2.22 0.14 1.14 1.75 1.08 -1.89z"/>
  <path class="fil3" d="M9466.1 9597.61c280.76,0 508.46,227.69 508.46,508.45 0,84.89 -20.84,164.92 -57.65,235.26l816.88 -117.92 190.28 543.5 -815.79 133.18 1134.83 1922.68 -501.13 366.9 -7.67 -13 -694.45 -896.94 -605.67 208.02 -172.45 1063.55 -577.46 0 345.26 -2257.01 -764.35 473.61 -31 -50.02 -85.91 97.56 -849.79 -326.09 155.45 1255.93 -287.94 -124.72 -60.42 930.74 -429.94 0 0 -1143.1 -475.7 -206.02 -746.29 1031.96 -10.42 18.29 -520.27 0 734.7 -1285.12 -367.79 -159.28 929.16 -906.08 -1103.95 -721.74 337.72 -400.17 947.18 555.09 0.03 0c-34.64,-34.77 -64.07,-72.53 -87.5,-112.51 118.18,-45.76 194.42,-155.25 231.88,-285.36 39.33,-173.66 196.42,-310.38 389.13,-310.38 220.32,0 399.02,178.7 399.02,399.04 0,42.11 -6.56,82.69 -18.65,120.81l9.57 3.48c1.88,121.83 41.58,191.7 108.61,258.53 -79.03,61.64 -178.68,106.64 -289.79,129.66l0.01 0.02 885.96 754.4 0 0.01 1194.58 -740.2c-157.97,-86.27 -265.18,-253.92 -265.18,-446.56 0,-280.76 227.69,-508.45 508.45,-508.45z"/>
  <path class="fil4" d="M16121.69 11139.46l0 590.9c0,0 -586.25,-250.52 -894.03,-167.08 -153.83,23.78 -396.46,208.77 29.62,334.29 201.33,71.55 337.53,113.31 408.58,137.22 76.87,23.92 663.13,161.14 657.1,787.72 0,626.37 -828.56,769.73 -1196.05,775.82 -367.02,5.94 -1024.19,-95.34 -1024.19,-125.34l0 -626.64c0,0 544.76,226.81 905.89,232.69 355.23,11.96 367.1,-184.78 367.1,-184.78 0,0 59.18,-119.39 -568.3,-334.37 -775.55,-268.42 -698.73,-835.48 -698.73,-835.48 0,0 41.29,-722.17 1107.37,-704.4 787.21,11.96 905.64,119.45 905.64,119.45z"/>
  <path class="fil4" d="M18566.95 10286.08l0 662.51c0,0 -716.43,-268.63 -1041.97,-155.38 -147.92,47.9 -384.86,304.5 112.47,567.25 189.41,107.35 307.91,172.95 384.85,214.78 70.98,35.73 752.08,274.44 787.54,1074.43 29.49,805.43 -935.72,972.37 -1302.81,978.45 -366.91,12.02 -1029.97,-65.6 -1029.97,-101.54l-6.04 -674.08c0,0 556.51,202.56 911.88,196.67 355.22,-11.88 485.58,-202.82 479.49,-333.95 -5.91,-131.28 59.11,-167.22 -728.29,-615.09 -816.9,-477.26 -680.77,-936.76 -698.47,-1068.16 0,0 82.91,-871.36 1154.43,-841.36 799.33,12.03 976.89,95.47 976.89,95.47z"/>
  <path class="fil4" d="M20011.86 11551.38c277.82,47.58 301.75,208.77 295.85,435.71 -106.64,-6 -207.18,-6 -295.85,-6 -248.86,0 -432.57,23.91 -467.83,35.79 0,0 -680.84,119.19 -657.25,853.46 23.53,727.99 787.48,721.9 787.48,721.9 0,0 165.68,-5.81 337.6,-71.54 106.24,-41.5 219.03,-107.37 289.76,-214.72 142.21,292.35 521.17,286.26 521.17,286.26 0,0 450.2,0 538.68,-53.44 0,-83.7 5.9,-501.51 5.9,-531.31l-147.92 0c0,0 -59.26,-17.83 -65.02,-95.46 0,-71.49 0,-1133.84 -23.86,-1313.07 -47.25,-208.71 -159.73,-566.99 -1089.21,-584.69l-29.5 0c-722.59,23.84 -917.9,172.82 -917.9,172.82l0 567.12c0,0 384.85,-226.81 787.47,-214.78 47.26,5.88 88.75,5.88 130.43,11.95zm0 942.84c11.73,0 23.52,0 41.16,-6.08 219.1,-17.77 242.89,-5.82 242.89,-5.82l0 352.15c0,0 -124.2,161.07 -284.05,179.1 -17.97,0 -29.96,6.07 -47.65,0 -177.55,-6.08 -236.86,-131.34 -242.7,-232.88 0,-89.59 47.32,-244.65 290.35,-286.47z"/>
  <polygon class="fil4" points="22433.06,10190.61 22433.06,13532.72 21539.28,13532.72 21539.28,10047.32 22433.06,10047.32 "/>
  <path class="fil4" d="M22729.11 11073.92l894.1 5.69 5.91 1653.51c0,0 23.71,167.01 183.44,167.01 159.79,0 426.41,-232.75 420.58,-441.78 0,-202.82 -11.94,-1384.43 -11.94,-1384.43l888.08 5.69 5.91 2453.11 -905.71 6.08c0,0 88.87,-328.16 59.24,-459.76 -77.07,101.62 -290.14,525.23 -834.86,519.29 -544.96,-11.9 -698.79,-513.21 -698.79,-662.26 0,-41.81 -5.96,-1862.15 -5.96,-1862.15z"/>
  <path class="fil4" d="M26998.16 11282.75l-11.99 -1229.62 917.83 0 0 3491.35 -929.56 -5.68 65.08 -465.64c0,0 -100.67,304.3 -420.31,447.54 -100.94,47.9 -224.94,77.63 -379.08,77.63 -627.5,-6.09 -953.23,-543.27 -953.23,-1265.45 0,-715.82 379.16,-1312.87 1006.77,-1312.87 130.09,6.08 236.8,23.98 325.54,47.9 301.95,77.36 378.95,214.84 378.95,214.84zm-378.95 1623.46c266.29,-11.95 378.95,-328.42 378.95,-328.42l0 -787.64c0,0 -94.83,-208.97 -349.39,-214.91l-29.56 0c-236.94,23.72 -367.16,316.19 -379.08,698.32 -5.78,399.76 147.92,626.57 355.55,632.65l23.53 0z"/>
  <polygon class="fil4" points="11639.72,13544.46 11639.72,10268.01 13866.14,10268.01 13866.14,10841.07 12533.69,10847.16 12533.69,11605.07 13628.94,11605.07 13628.94,12112.2 12539.73,12112.2 12539.73,12947.87 13972.5,12947.87 13972.5,13544.46 "/>
 </g>
</svg>
