<?xml version="1.0" encoding="UTF-8"?>
<!DOCTYPE svg PUBLIC "-//W3C//DTD SVG 1.1//EN" "http://www.w3.org/Graphics/SVG/1.1/DTD/svg11.dtd">
<!-- Creator: CorelDRAW (Versión de evaluación) -->
<svg xmlns="http://www.w3.org/2000/svg" xml:space="preserve" width="215.9mm" height="330.2mm" version="1.1" style="shape-rendering:geometricPrecision; text-rendering:geometricPrecision; image-rendering:optimizeQuality; fill-rule:evenodd; clip-rule:evenodd"
viewBox="0 0 21590 33020"
 xmlns:xlink="http://www.w3.org/1999/xlink"
 xmlns:xodm="http://www.corel.com/coreldraw/odm/2003">
 <defs>
  <style type="text/css">
   <![CDATA[
    .fil3 {fill:#2EBBE8}
    .fil1 {fill:#2789C9}
    .fil2 {fill:#2789C9;fill-rule:nonzero}
    .fil0 {fill:#00AFD7;fill-rule:nonzero}
   ]]>
  </style>
 </defs>
<symbol id="Símbolo2" viewBox="19422.66 -1744.51 4183.11 2718.69">
 <path class="fil0" d="M21321.26 940.27c851.29,-239.85 1049.2,-254.71 1322.53,-286.49 273.44,-31.86 932.64,-15.84 960.51,-748 36.94,-970.73 -635.39,-1082.18 -923.47,-1472.03 -317.95,-430.11 -1023.37,50.59 -1706.84,71.61 -775.79,23.85 -1470.31,397.79 -1544.21,1090.12 -73.91,692.26 447.28,567.83 676.38,894.12 229.02,326.21 760.83,578.59 1215.1,450.67z"/>
</symbol>
<symbol id="Fm0-14-0" viewBox="19422.66 -1744.51 4183.11 2718.69">
 <path class="fil0" d="M21321.26 940.27c851.29,-239.85 1049.2,-254.71 1322.53,-286.49 273.44,-31.86 932.64,-15.84 960.51,-748 36.94,-970.73 -635.39,-1082.18 -923.47,-1472.03 -317.95,-430.11 -1023.37,50.59 -1706.84,71.61 -775.79,23.85 -1470.31,397.79 -1544.21,1090.12 -73.91,692.26 447.28,567.83 676.38,894.12 229.02,326.21 760.83,578.59 1215.1,450.67z"/>
</symbol>
<symbol id="Fm1-15-0" viewBox="13876.6 8552.12 4889.9 3375.71">
 <path class="fil0" d="M16095.99 11885.72c995.15,-297.78 1226.46,-316.2 1545.98,-355.74 319.61,-39.55 1090.22,-19.69 1122.82,-928.76 43.18,-1205.41 -742.74,-1343.66 -1079.54,-1827.78 -371.65,-534.03 -1196.27,62.87 -1995.17,88.9 -906.92,29.67 -1718.77,494 -1805.16,1353.58 -86.4,859.61 522.88,705.02 790.64,1110.15 267.76,405.06 889.43,718.54 1420.43,559.65z"/>
</symbol>
<symbol id="Símbolo1" viewBox="13876.6 8552.12 4889.9 3375.71">
 <path class="fil0" d="M16095.99 11885.72c995.15,-297.78 1226.46,-316.2 1545.98,-355.74 319.61,-39.55 1090.22,-19.69 1122.82,-928.76 43.18,-1205.41 -742.74,-1343.66 -1079.54,-1827.78 -371.65,-534.03 -1196.27,62.87 -1995.17,88.9 -906.92,29.67 -1718.77,494 -1805.16,1353.58 -86.4,859.61 522.88,705.02 790.64,1110.15 267.76,405.06 889.43,718.54 1420.43,559.65z"/>
</symbol>
 <g id="Capa_x0020_1">
  <metadata id="CorelCorpID_0Corel-Layer"/>
  <g id="_2921725185856">
   <polygon class="fil1" points="4767.4,16654.55 4633.68,17622.04 5052.84,17622.04 5054.74,16745.89 "/>
   <polygon class="fil1" points="8187.81,15168.24 9779.76,15168.24 9779.99,15579.53 8827.06,15578.98 8827.06,16217.04 9610.29,16217.04 9610.29,16576.9 8831.36,16576.9 8831.36,17207.11 9855.85,17207.11 9855.85,17638.38 8187.81,17638.38 "/>
   <path class="fil1" d="M11392.87 15883.12l0 421.77c0,0 -419.23,-178.94 -639.32,-119.33 -110.08,17.03 -283.84,149.1 21.16,238.55 143.93,51.03 775.66,233.74 762.07,660.17 -14.11,447.09 -592.84,549.54 -855.26,553.83 -262.51,4.15 -733.77,-90.02 -732.46,-89.49l0 -447.19c0,0 389.54,161.79 647.84,166.09 114.99,3.85 179.66,-22.91 216.09,-53.33 43.89,-36.69 56.69,-159.36 -360.09,-317.26 -579.95,-202.28 -499.54,-596.3 -499.54,-596.3 0,0 43.89,-497.18 791.76,-502.66 389.38,-0.02 647.75,85.15 647.75,85.15z"/>
   <path class="fil1" d="M13141.45 15251.47l0 461.73c0,0 -512.35,-192.85 -745.33,-111.42 -105.79,34.29 -275.09,218.66 80.56,407.27 135.55,77.13 836.76,385.98 838.23,926.02 1.7,579.15 -668.86,698.75 -931.37,703.16 -262.51,8.59 -740.43,-72.31 -740.43,-72.31l-0.53 -485.02c0,0 397.98,145.63 652.14,141.46 126.94,-4.29 211.94,-42.99 268.25,-87.97 171.37,-136.9 116.93,-272.18 -445.99,-593.76 -817.08,-446.66 -554.41,-1370.39 325.86,-1371.82 473.4,11.38 698.61,82.66 698.61,82.66z"/>
   <path class="fil1" d="M14384.36 17101.43c0,0 -95.59,114.23 -209.8,126.97 -12.73,0 -22.18,1.07 -33.98,0 -127.05,-4.14 -169.32,-93.1 -173.61,-165.02 0,-63.49 33.75,-173.71 207.59,-203.33 8.51,-1.89 18.33,-2.27 29.46,-4.14 156.65,-12.73 180.34,-4.3 180.34,-4.3l0 249.82zm653.84 122.83c0,0 -42.29,-12.74 -46.58,-67.78 0.02,-50.8 7.99,-799.89 -9.05,-926.99 -33.82,-148.14 -122.29,-406.62 -786.92,-419.47l-21.09 -0.02c-516.6,17.01 -656.44,122.82 -656.44,122.82l0 402.37c0,0 275.34,-161.01 563.23,-152.44 33.83,4.14 63.51,4.17 93.21,8.44 198.85,33.87 215.71,148.15 211.56,309 -76.33,-4.18 -148.12,-4.18 -211.56,-4.18 -177.98,0 -821.44,109.97 -804.49,630.85 16.94,516.58 563.07,512.32 563.07,512.32 0,0 113.85,8.84 236.59,-37.76 76.18,-29.62 163.02,-90.56 213.79,-166.78 101.65,207.51 370.9,204.54 370.9,204.54 0,0 326.04,-2.29 389.64,-40.46 0,-59.18 0,-374.46 0,-374.46l-105.86 0z"/>
   <polygon class="fil1" points="15906.04,15265.59 15906.04,17636.51 15266.79,17636.51 15266.79,15168.24 15906.04,15168.24 "/>
   <path class="fil1" d="M16121.68 15891.32l639.67 0 0 1177.8c0,0 16.97,118.57 131.18,118.57 114.38,0 304.86,-165.15 300.69,-313.3 0.03,-143.82 0.25,-982.83 0.25,-982.83l630.94 0.16 -0.4 1746.77 -640.12 -0.26c0,0 55.85,-230.38 34.78,-323.46 -55.13,71.93 -213.49,329.22 -603.04,325.08 -389.54,-8.57 -493.64,-320.89 -493.64,-426.73 0,-29.61 -0.31,-1321.78 -0.31,-1321.8z"/>
   <path class="fil1" d="M19170.44 16959.17c0,0 -80.6,224.34 -271.01,232.78l-16.81 0c-148.24,-4.26 -258.46,-165 -254.14,-448.69 8.42,-270.95 101.58,-478.41 270.95,-495.4l21.04 -0.02c182.1,4.3 249.97,152.44 249.97,152.44l0 558.89zm-0.55 -1790.93l0.55 872.14c0,0 -55.15,-97.38 -271.01,-152.42 -63.55,-16.88 -161.91,-33.87 -232.92,-33.87 -448.77,0 -719.63,423.5 -719.63,931.52 0,512.26 227.82,854.24 676.59,854.24 325.44,0 576.5,-329.33 576.5,-329.33l-45.47 327.86 663.77 0 0 -2470.14 -648.38 0z"/>
   <path class="fil2" d="M1771.74 18732.85l130.15 -11.7c6.09,52.65 20.48,95.79 43.13,129.67 22.68,33.63 57.77,60.91 105.3,81.89 47.53,20.7 101.14,31.2 160.61,31.2 52.89,0 99.42,-7.81 139.89,-23.65 40.45,-15.85 70.42,-37.54 90.18,-65.08 19.73,-27.54 29.73,-57.51 29.73,-89.68 0,-32.66 -9.51,-61.17 -28.53,-85.78 -19,-24.38 -50.43,-44.86 -94.3,-61.66 -28.04,-10.74 -90.19,-27.8 -186.45,-50.95 -96.26,-23.15 -163.54,-44.84 -202.03,-65.32 -49.98,-26.31 -87.01,-58.97 -111.39,-97.72 -24.61,-38.75 -36.81,-82.39 -36.81,-130.39 0,-53.14 15.12,-102.6 45.1,-148.43 29.97,-46.04 73.6,-80.9 131.37,-104.78 57.51,-23.88 121.6,-35.84 192.04,-35.84 77.5,0 145.99,12.43 205.2,37.54 59.23,24.85 104.8,61.66 136.73,110.39 31.93,48.5 48.99,103.58 51.42,165.01l-133.07 10.24c-7.06,-66.06 -31.2,-116.01 -72.38,-149.64 -41.18,-33.89 -102.11,-50.69 -182.54,-50.69 -83.84,0 -145.01,15.34 -183.27,46.04 -38.27,30.72 -57.53,67.75 -57.53,111.15 0,37.52 13.66,68.48 40.71,92.86 26.81,24.12 96.26,49.23 208.87,74.57 112.59,25.58 189.85,47.76 231.76,66.78 60.7,28.02 105.77,63.37 134.78,106.5 29,42.89 43.37,92.37 43.37,148.42 0,55.81 -15.83,107.96 -47.76,157.19 -31.93,49.23 -77.5,87.5 -137.21,114.8 -59.7,27.29 -126.72,40.95 -201.55,40.95 -94.56,0 -173.76,-13.9 -237.62,-41.44 -64.09,-27.54 -114.07,-68.98 -150.37,-124.53 -36.55,-55.34 -55.57,-117.97 -57.53,-187.92zm1522.25 90.67l133.08 17.54c-20.72,77.26 -59.47,137.46 -116.01,180.1 -56.55,42.66 -128.69,64.11 -216.66,64.11 -110.66,0 -198.4,-34.12 -263.22,-102.36 -64.83,-67.99 -97.23,-163.78 -97.23,-286.85 0,-127.22 32.66,-226.17 98.22,-296.37 65.55,-70.42 150.6,-105.51 255.17,-105.51 101.12,0 183.76,34.36 247.85,103.32 64.1,68.97 96.26,165.96 96.26,290.99 0,7.57 -0.23,19.02 -0.73,34.12l-565.16 0c4.86,83.12 28.27,146.97 70.67,191.08 42.15,44.11 95.04,66.29 158.17,66.29 47.03,0 87.24,-12.44 120.39,-37.29 33.4,-24.85 59.71,-64.59 79.2,-119.17zm-421.14 -206.18l422.61 0c-5.6,-63.86 -21.93,-111.62 -48.5,-143.55 -40.71,-49.49 -93.83,-74.34 -158.89,-74.34 -59,0 -108.46,19.75 -148.67,59.23 -39.98,39.48 -62.16,92.37 -66.55,158.66zm693.14 514.71l124.29 17.56c5.12,38.51 19.73,66.52 43.64,84.31 31.91,23.65 75.54,35.59 130.85,35.59 59.47,0 105.54,-11.94 137.96,-35.59 32.4,-23.62 54.35,-57.01 65.79,-99.68 6.59,-26.07 9.75,-80.89 9.28,-164.5 -56.31,66.29 -126.25,99.44 -210.1,99.44 -104.31,0 -185.23,-37.52 -242.24,-112.85 -57.28,-75.06 -85.78,-165.23 -85.78,-270.27 0,-72.38 13.14,-139.16 39.22,-200.33 26.08,-61.17 64.09,-108.2 113.82,-141.59 49.72,-33.4 108.22,-49.96 175.47,-49.96 89.44,0 163.29,36.55 221.29,109.66l0 -93.59 118.46 0 0 655.36c0,118.2 -11.94,201.79 -36.08,251.02 -23.88,49.22 -62.13,88.23 -114.05,116.74 -52.15,28.51 -116.25,42.9 -192.3,42.9 -90.41,0 -163.28,-20.25 -218.86,-60.93 -55.81,-40.47 -82.62,-101.64 -80.66,-183.29zm105.28 -455.24c0,99.18 19.75,171.56 59.23,217.15 39.71,45.57 89.2,68.48 148.67,68.48 59.21,0 108.69,-22.67 148.9,-68.01 39.98,-45.33 59.95,-116.48 59.95,-213.49 0,-92.6 -20.7,-162.55 -61.9,-209.58 -41.18,-47.06 -90.9,-70.44 -148.91,-70.44 -57.27,0 -105.77,23.15 -145.98,69.45 -39.98,46.32 -59.96,115.04 -59.96,206.44zm1227.36 392.37l0 -112.85c-58.98,86.04 -138.93,128.94 -240.07,128.94 -44.6,0 -86.28,-8.54 -125.02,-25.6 -38.75,-17.3 -67.5,-38.75 -86.28,-64.59 -18.76,-26.07 -31.93,-57.74 -39.48,-95.29 -5.12,-25.34 -7.79,-65.3 -7.79,-119.9l0 -469.64 128.68 0 0 419.92c0,67.04 2.67,112.35 7.79,135.52 8.05,33.86 25.11,60.18 51.42,79.43 26.08,19.26 58.27,29.01 96.76,29.01 38.51,0 74.57,-9.75 108.22,-29.48 33.63,-19.75 57.51,-46.8 71.65,-80.68 13.89,-33.87 20.95,-83.35 20.95,-147.94l0 -405.78 128.69 0 0 758.93 -115.52 0zm316.1 0l0 -758.93 115.52 0 0 116.25c29.5,-53.86 56.78,-89.44 81.89,-106.5 25.1,-17.3 52.64,-25.82 82.62,-25.82 43.37,0 87.5,13.64 132.34,40.68l-45.83 118.7c-31.2,-17.55 -62.4,-26.33 -93.57,-26.33 -28.04,0 -53.14,8.54 -75.33,25.34 -22.16,16.83 -38.01,40.22 -47.52,70.21 -14.38,45.57 -21.43,95.53 -21.43,149.87l0 396.53 -128.69 0zm488.4 -900.76l0 -146.24 128.68 0 0 146.24 -128.68 0zm0 900.76l0 -758.93 128.68 0 0 758.93 -128.68 0zm814.74 0l0 -96.26c-48.02,74.81 -118.69,112.35 -212.03,112.35 -60.44,0 -116.01,-16.58 -166.46,-49.97 -50.69,-33.14 -89.92,-79.7 -117.95,-139.17 -27.78,-59.7 -41.68,-128.18 -41.68,-205.68 0,-75.54 12.68,-144.03 37.78,-205.69 25.35,-61.43 63.11,-108.7 113.56,-141.36 50.22,-32.91 106.76,-49.22 168.9,-49.22 45.83,0 86.51,9.74 122.1,29 35.58,19.24 64.59,44.58 87.01,75.54l0 -376.54 128.68 0 0 1047 -119.91 0zm-406.51 -378.5c0,97.02 20.46,169.39 61.67,217.42 40.94,48 89.44,71.88 145.25,71.88 56.28,0 104.07,-22.91 143.55,-68.72 39.22,-45.83 58.97,-115.77 58.97,-209.84 0,-103.34 -19.99,-179.37 -60.2,-227.87 -39.97,-48.51 -89.44,-72.63 -148.18,-72.63 -57.27,0 -105.03,23.15 -143.55,69.7 -38.25,46.54 -57.51,119.91 -57.51,220.06zm1225.65 283.45c-47.77,40.7 -93.83,69.21 -137.96,86.04 -44.11,16.8 -91.38,25.1 -142.07,25.1 -83.35,0 -147.46,-20.24 -192.3,-60.93 -44.84,-40.47 -67.26,-92.36 -67.26,-155.49 0,-37.05 8.52,-70.93 25.35,-101.64 17.06,-30.7 39.24,-55.07 66.52,-73.6 27.54,-18.52 58.25,-32.66 92.63,-42.15 25.34,-6.58 63.6,-12.93 114.54,-19.25 103.82,-12.2 180.58,-27.07 229.57,-44.11 0.5,-17.56 0.74,-28.77 0.74,-33.39 0,-52.16 -12.18,-88.97 -36.56,-110.42 -32.9,-29 -81.89,-43.37 -146.71,-43.37 -60.7,0 -105.53,10.71 -134.3,31.92 -29,21.2 -50.2,58.74 -64.09,112.85l-125.76 -17.55c11.46,-53.86 30.23,-97.49 56.54,-130.64 26.33,-33.14 64.35,-58.48 114.05,-76.51 49.49,-17.8 107.26,-26.81 172.56,-26.81 64.82,0 117.73,7.55 158.41,22.89 40.47,15.36 70.44,34.38 89.44,57.53 19.02,23.15 32.43,52.39 40.22,87.74 4.15,21.93 6.34,61.41 6.34,118.19l0 170.61c0,119.17 2.69,194.48 8.05,226.41 5.12,31.93 15.83,62.39 31.43,91.63l-134.53 0c-12.91,-27.04 -21.2,-58.74 -24.85,-95.05zm-10.24 -285.15c-46.8,19.02 -116.98,35.1 -210.57,48.26 -53.13,7.56 -90.67,16.1 -112.6,25.59 -21.94,9.5 -38.74,23.4 -50.69,41.43 -11.94,18.29 -18.05,38.52 -18.05,60.93 0,33.87 12.93,62.4 39.01,85.06 26.08,22.67 64.1,34.12 114.05,34.12 49.49,0 93.6,-10.72 132.34,-32.42 38.52,-21.44 67.03,-50.93 85.06,-88.22 13.89,-29 20.71,-71.64 20.71,-127.95l0.74 -46.8zm817.67 380.2l0 -96.26c-48.03,74.81 -118.7,112.35 -212.04,112.35 -60.44,0 -116.01,-16.58 -166.46,-49.97 -50.69,-33.14 -89.92,-79.7 -117.95,-139.17 -27.78,-59.7 -41.68,-128.18 -41.68,-205.68 0,-75.54 12.68,-144.03 37.78,-205.69 25.35,-61.43 63.11,-108.7 113.56,-141.36 50.22,-32.91 106.76,-49.22 168.9,-49.22 45.83,0 86.51,9.74 122.1,29 35.59,19.24 64.59,44.58 87.01,75.54l0 -376.54 128.68 0 0 1047 -119.9 0zm-406.52 -378.5c0,97.02 20.47,169.39 61.67,217.42 40.94,48 89.44,71.88 145.25,71.88 56.28,0 104.07,-22.91 143.55,-68.72 39.22,-45.83 58.97,-115.77 58.97,-209.84 0,-103.34 -19.99,-179.37 -60.2,-227.87 -39.97,-48.51 -89.44,-72.63 -148.18,-72.63 -57.27,0 -105.03,23.15 -143.55,69.7 -38.25,46.54 -57.51,119.91 -57.51,220.06zm1085.02 151.84l127.22 -20.46c7.06,50.92 27.05,89.93 59.71,117.21 32.66,27.07 78.49,40.71 136.97,40.71 59.23,0 103.1,-11.94 131.84,-36.06 28.53,-23.88 42.9,-52.15 42.9,-84.58 0,-29 -12.91,-51.91 -38.51,-68.48 -18.03,-11.45 -61.9,-25.84 -131.61,-43.63 -94.06,-23.63 -159.13,-44.11 -195.7,-61.41 -36.3,-17.55 -63.84,-41.44 -82.62,-72.14 -18.76,-30.47 -28.27,-64.35 -28.27,-101.38 0,-33.89 7.81,-65.08 23.17,-93.83 15.58,-28.76 36.55,-52.65 63.1,-71.66 19.99,-14.61 47.29,-27.05 81.65,-37.29 34.62,-10.24 71.41,-15.34 110.89,-15.34 59.47,0 111.63,8.52 156.47,25.82 45.09,17.06 78.23,40.47 99.68,69.71 21.21,29.49 36.08,68.72 44.12,117.94l-125.75 17.56c-5.62,-39.48 -22.19,-70.44 -49.49,-92.6 -27.3,-22.18 -65.79,-33.16 -115.77,-33.16 -58.72,0 -100.89,9.75 -126,29.24 -25.11,19.52 -37.78,42.41 -37.78,68.49 0,16.58 5.12,31.69 15.6,45.09 10.48,13.64 26.81,25.11 49.25,34.12 12.91,4.87 50.43,15.84 113.32,32.9 90.67,24.12 154.03,44.11 190.09,59.47 36.08,15.36 64.35,38.02 84.81,67.26 20.72,29.49 30.96,66.05 30.96,109.92 0,42.64 -12.43,82.85 -37.54,120.64 -25.09,37.78 -61.17,67.02 -108.2,87.73 -47.29,20.72 -100.65,30.96 -160.12,30.96 -98.45,0 -173.78,-20.48 -225.44,-61.18 -51.68,-40.95 -84.57,-101.38 -98.95,-181.57zm734.08 -152.8c0,-140.13 38.99,-243.97 117.22,-311.46 65.08,-56.07 144.78,-84.08 238.61,-84.08 104.07,0 189.35,34.1 255.66,102.35 66.03,67.99 99.19,162.31 99.19,282.47 0,97.49 -14.63,174.02 -43.87,229.83 -29.24,55.81 -71.91,99.18 -127.95,130.12 -55.81,30.96 -116.98,46.32 -183.03,46.32 -106.27,0 -192.05,-33.88 -257.61,-101.87 -65.56,-68.01 -98.22,-165.97 -98.22,-293.68zm131.61 0.23c0,97.01 21.2,169.63 63.6,217.65 42.65,48.26 96.03,72.38 160.62,72.38 63.85,0 116.98,-24.12 159.64,-72.62 42.39,-48.51 63.6,-122.35 63.6,-221.54 0,-93.59 -21.45,-164.5 -64.1,-212.53 -42.64,-48.25 -95.78,-72.37 -159.14,-72.37 -64.59,0 -117.97,23.88 -160.62,71.9 -42.4,48 -63.6,120.38 -63.6,217.13zm1225.65 101.4l125.75 17.54c-13.89,86.51 -48.99,154.03 -105.77,203.02 -56.79,48.99 -126.74,73.36 -209.36,73.36 -103.58,0 -186.93,-33.88 -249.79,-101.63 -63.13,-67.76 -94.56,-164.75 -94.56,-291 0,-81.89 13.64,-153.29 40.68,-214.72 27.07,-61.17 68.25,-107.23 123.82,-137.7 55.32,-30.7 115.52,-46.04 180.84,-46.04 82.12,0 149.64,20.7 201.79,62.37 52.39,41.68 86.02,100.91 100.65,177.44l-124.29 19c-11.94,-50.93 -32.9,-89.21 -63.37,-115.03 -30.22,-25.6 -66.78,-38.51 -109.66,-38.51 -64.85,0 -117.47,23.15 -158.18,69.45 -40.45,46.56 -60.69,119.67 -60.69,220.08 0,101.88 19.51,175.72 58.49,221.78 39.25,46.07 90.18,69.22 152.81,69.22 50.71,0 92.86,-15.34 126.49,-46.3 33.88,-30.7 55.33,-78.23 64.35,-142.33zm235.44 -622.93l0 -146.24 128.68 0 0 146.24 -128.68 0zm0 900.76l0 -758.93 128.68 0 0 758.93 -128.68 0zm820.59 -95.05c-47.76,40.7 -93.82,69.21 -137.95,86.04 -44.11,16.8 -91.38,25.1 -142.07,25.1 -83.35,0 -147.46,-20.24 -192.3,-60.93 -44.84,-40.47 -67.26,-92.36 -67.26,-155.49 0,-37.05 8.52,-70.93 25.35,-101.64 17.06,-30.7 39.24,-55.07 66.52,-73.6 27.54,-18.52 58.24,-32.66 92.62,-42.15 25.35,-6.58 63.6,-12.93 114.55,-19.25 103.81,-12.2 180.58,-27.07 229.57,-44.11 0.5,-17.56 0.73,-28.77 0.73,-33.39 0,-52.16 -12.18,-88.97 -36.55,-110.42 -32.9,-29 -81.89,-43.37 -146.72,-43.37 -60.69,0 -105.53,10.71 -134.29,31.92 -29.01,21.2 -50.2,58.74 -64.1,112.85l-125.75 -17.55c11.46,-53.86 30.22,-97.49 56.54,-130.64 26.33,-33.14 64.35,-58.48 114.05,-76.51 49.49,-17.8 107.25,-26.81 172.55,-26.81 64.83,0 117.73,7.55 158.42,22.89 40.47,15.36 70.44,34.38 89.44,57.53 19.02,23.15 32.42,52.39 40.21,87.74 4.15,21.93 6.35,61.41 6.35,118.19l0 170.61c0,119.17 2.69,194.48 8.05,226.41 5.12,31.93 15.83,62.39 31.43,91.63l-134.53 0c-12.91,-27.04 -21.2,-58.74 -24.86,-95.05zm-10.24 -285.15c-46.79,19.02 -116.98,35.1 -210.57,48.26 -53.12,7.56 -90.66,16.1 -112.59,25.59 -21.94,9.5 -38.75,23.4 -50.69,41.43 -11.94,18.29 -18.05,38.52 -18.05,60.93 0,33.87 12.93,62.4 39.01,85.06 26.07,22.67 64.09,34.12 114.05,34.12 49.49,0 93.59,-10.72 132.34,-32.42 38.51,-21.44 67.02,-50.93 85.05,-88.22 13.9,-29 20.72,-71.64 20.72,-127.95l0.73 -46.8zm324.88 380.2l0 -1047 128.69 0 0 1047 -128.69 0zm734.09 291l0 -1049.93 116.98 0 0 99.68c27.53,-38.51 58.73,-67.51 93.59,-86.75 34.59,-19.26 76.76,-29 126.23,-29 64.82,0 121.86,16.56 171.35,49.96 49.46,33.13 86.75,80.16 112.09,140.62 25.11,60.67 37.78,126.96 37.78,199.36 0,77.24 -13.9,146.95 -41.67,209.11 -27.78,61.9 -68.25,109.43 -121.37,142.56 -52.89,32.9 -108.7,49.48 -167.2,49.48 -42.88,0 -81.39,-9.03 -115.28,-27.06 -34.12,-18.03 -61.9,-40.69 -83.82,-68.23l0 370.2 -128.68 0zm116.98 -665.84c0,97.25 19.73,169.15 58.97,215.69 39.48,46.56 87.24,69.95 143.31,69.95 57.02,0 105.77,-24.12 146.22,-72.38 40.71,-48.26 60.93,-122.83 60.93,-223.97 0,-96.52 -19.73,-168.66 -59.47,-216.66 -39.71,-48.02 -87,-71.91 -142.08,-71.91 -54.59,0 -102.85,25.61 -144.76,76.53 -42.17,51.19 -63.12,125.27 -63.12,222.75zm1192.01 279.79c-47.76,40.7 -93.83,69.21 -137.96,86.04 -44.1,16.8 -91.37,25.1 -142.06,25.1 -83.35,0 -147.47,-20.24 -192.31,-60.93 -44.83,-40.47 -67.25,-92.36 -67.25,-155.49 0,-37.05 8.52,-70.93 25.34,-101.64 17.06,-30.7 39.25,-55.07 66.53,-73.6 27.54,-18.52 58.24,-32.66 92.62,-42.15 25.35,-6.58 63.6,-12.93 114.55,-19.25 103.81,-12.2 180.58,-27.07 229.57,-44.11 0.49,-17.56 0.73,-28.77 0.73,-33.39 0,-52.16 -12.18,-88.97 -36.56,-110.42 -32.89,-29 -81.88,-43.37 -146.71,-43.37 -60.69,0 -105.53,10.71 -134.3,31.92 -29,21.2 -50.19,58.74 -64.09,112.85l-125.76 -17.55c11.47,-53.86 30.23,-97.49 56.54,-130.64 26.34,-33.14 64.36,-58.48 114.06,-76.51 49.48,-17.8 107.25,-26.81 172.55,-26.81 64.83,0 117.73,7.55 158.42,22.89 40.47,15.36 70.44,34.38 89.44,57.53 19.02,23.15 32.42,52.39 40.21,87.74 4.15,21.93 6.35,61.41 6.35,118.19l0 170.61c0,119.17 2.68,194.48 8.04,226.41 5.12,31.93 15.84,62.39 31.44,91.63l-134.54 0c-12.91,-27.04 -21.19,-58.74 -24.85,-95.05zm-10.24 -285.15c-46.8,19.02 -116.98,35.1 -210.57,48.26 -53.12,7.56 -90.67,16.1 -112.59,25.59 -21.95,9.5 -38.75,23.4 -50.69,41.43 -11.94,18.29 -18.05,38.52 -18.05,60.93 0,33.87 12.93,62.4 39,85.06 26.08,22.67 64.1,34.12 114.06,34.12 49.48,0 93.59,-10.72 132.34,-32.42 38.51,-21.44 67.02,-50.93 85.05,-88.22 13.9,-29 20.72,-71.64 20.72,-127.95l0.73 -46.8zm326.34 380.2l0 -758.93 115.52 0 0 116.25c29.5,-53.86 56.78,-89.44 81.89,-106.5 25.11,-17.3 52.64,-25.82 82.62,-25.82 43.37,0 87.5,13.64 132.34,40.68l-45.83 118.7c-31.2,-17.55 -62.39,-26.33 -93.57,-26.33 -28.04,0 -53.14,8.54 -75.33,25.34 -22.16,16.83 -38.01,40.22 -47.52,70.21 -14.38,45.57 -21.43,95.53 -21.43,149.87l0 396.53 -128.69 0zm984.12 -95.05c-47.77,40.7 -93.83,69.21 -137.96,86.04 -44.11,16.8 -91.38,25.1 -142.07,25.1 -83.35,0 -147.46,-20.24 -192.3,-60.93 -44.84,-40.47 -67.26,-92.36 -67.26,-155.49 0,-37.05 8.52,-70.93 25.35,-101.64 17.06,-30.7 39.24,-55.07 66.52,-73.6 27.54,-18.52 58.25,-32.66 92.63,-42.15 25.34,-6.58 63.6,-12.93 114.54,-19.25 103.82,-12.2 180.58,-27.07 229.57,-44.11 0.5,-17.56 0.74,-28.77 0.74,-33.39 0,-52.16 -12.18,-88.97 -36.56,-110.42 -32.9,-29 -81.89,-43.37 -146.71,-43.37 -60.7,0 -105.54,10.71 -134.3,31.92 -29,21.2 -50.2,58.74 -64.1,112.85l-125.75 -17.55c11.46,-53.86 30.23,-97.49 56.54,-130.64 26.33,-33.14 64.35,-58.48 114.05,-76.51 49.49,-17.8 107.26,-26.81 172.56,-26.81 64.82,0 117.73,7.55 158.41,22.89 40.47,15.36 70.44,34.38 89.44,57.53 19.02,23.15 32.43,52.39 40.22,87.74 4.15,21.93 6.34,61.41 6.34,118.19l0 170.61c0,119.17 2.69,194.48 8.05,226.41 5.12,31.93 15.83,62.39 31.43,91.63l-134.53 0c-12.91,-27.04 -21.2,-58.74 -24.85,-95.05zm-10.24 -285.15c-46.8,19.02 -116.98,35.1 -210.58,48.26 -53.12,7.56 -90.66,16.1 -112.59,25.59 -21.94,9.5 -38.74,23.4 -50.69,41.43 -11.94,18.29 -18.05,38.52 -18.05,60.93 0,33.87 12.93,62.4 39.01,85.06 26.08,22.67 64.09,34.12 114.05,34.12 49.49,0 93.6,-10.72 132.34,-32.42 38.52,-21.44 67.02,-50.93 85.06,-88.22 13.89,-29 20.71,-71.64 20.71,-127.95l0.74 -46.8zm1013.37 265.42l17.55 113.56c-36.08,7.57 -68.48,11.46 -96.75,11.46 -46.56,0 -82.62,-7.31 -108.46,-22.18 -25.6,-14.87 -43.63,-34.12 -54.11,-58.24 -10.48,-24.14 -15.6,-74.83 -15.6,-152.09l0 -437.22 -95.05 0 0 -99.44 95.05 0 0 -187.66 128.69 -77.26 0 264.92 128.68 0 0 99.44 -128.68 0 0 444.53c0,36.81 2.19,60.44 6.82,70.92 4.38,10.5 11.7,18.78 21.94,25.11 10.22,6.08 24.85,9.27 43.87,9.27 14.14,0 32.9,-1.72 56.05,-5.12zm78.72 -264.68c0,-140.13 38.99,-243.97 117.22,-311.46 65.08,-56.07 144.78,-84.08 238.6,-84.08 104.07,0 189.36,34.1 255.67,102.35 66.03,67.99 99.19,162.31 99.19,282.47 0,97.49 -14.63,174.02 -43.87,229.83 -29.24,55.81 -71.91,99.18 -127.95,130.12 -55.82,30.96 -116.98,46.32 -183.04,46.32 -106.26,0 -192.04,-33.88 -257.6,-101.87 -65.56,-68.01 -98.22,-165.97 -98.22,-293.68zm131.61 0.23c0,97.01 21.2,169.63 63.6,217.65 42.65,48.26 96.03,72.38 160.61,72.38 63.86,0 116.98,-24.12 159.65,-72.62 42.38,-48.51 63.6,-122.35 63.6,-221.54 0,-93.59 -21.45,-164.5 -64.1,-212.53 -42.64,-48.25 -95.78,-72.37 -159.15,-72.37 -64.58,0 -117.96,23.88 -160.61,71.9 -42.4,48 -63.6,120.38 -63.6,217.13zm1219.79 379.23l0 -96.26c-48.02,74.81 -118.7,112.35 -212.03,112.35 -60.44,0 -116.01,-16.58 -166.46,-49.97 -50.69,-33.14 -89.92,-79.7 -117.95,-139.17 -27.78,-59.7 -41.68,-128.18 -41.68,-205.68 0,-75.54 12.68,-144.03 37.78,-205.69 25.35,-61.43 63.11,-108.7 113.56,-141.36 50.22,-32.91 106.76,-49.22 168.9,-49.22 45.83,0 86.51,9.74 122.1,29 35.58,19.24 64.59,44.58 87.01,75.54l0 -376.54 128.68 0 0 1047 -119.91 0zm-406.51 -378.5c0,97.02 20.46,169.39 61.66,217.42 40.95,48 89.44,71.88 145.26,71.88 56.28,0 104.06,-22.91 143.55,-68.72 39.22,-45.83 58.97,-115.77 58.97,-209.84 0,-103.34 -19.99,-179.37 -60.2,-227.87 -39.98,-48.51 -89.44,-72.63 -148.18,-72.63 -57.27,0 -105.03,23.15 -143.55,69.7 -38.25,46.54 -57.51,119.91 -57.51,220.06zm681.67 -0.96c0,-140.13 38.99,-243.97 117.22,-311.46 65.08,-56.07 144.78,-84.08 238.6,-84.08 104.07,0 189.36,34.1 255.67,102.35 66.03,67.99 99.19,162.31 99.19,282.47 0,97.49 -14.63,174.02 -43.87,229.83 -29.24,55.81 -71.91,99.18 -127.95,130.12 -55.82,30.96 -116.98,46.32 -183.04,46.32 -106.26,0 -192.04,-33.88 -257.6,-101.87 -65.56,-68.01 -98.22,-165.97 -98.22,-293.68zm131.61 0.23c0,97.01 21.2,169.63 63.6,217.65 42.65,48.26 96.03,72.38 160.61,72.38 63.86,0 116.98,-24.12 159.65,-72.62 42.38,-48.51 63.6,-122.35 63.6,-221.54 0,-93.59 -21.45,-164.5 -64.1,-212.53 -42.64,-48.25 -95.78,-72.37 -159.15,-72.37 -64.58,0 -117.96,23.88 -160.61,71.9 -42.4,48 -63.6,120.38 -63.6,217.13zm678.75 152.57l127.22 -20.46c7.06,50.92 27.04,89.93 59.7,117.21 32.66,27.07 78.49,40.71 136.97,40.71 59.23,0 103.1,-11.94 131.85,-36.06 28.52,-23.88 42.9,-52.15 42.9,-84.58 0,-29 -12.91,-51.91 -38.51,-68.48 -18.03,-11.45 -61.9,-25.84 -131.61,-43.63 -94.07,-23.63 -159.13,-44.11 -195.71,-61.41 -36.3,-17.55 -63.83,-41.44 -82.62,-72.14 -18.76,-30.47 -28.27,-64.35 -28.27,-101.38 0,-33.89 7.81,-65.08 23.17,-93.83 15.58,-28.76 36.56,-52.65 63.11,-71.66 19.99,-14.61 47.29,-27.05 81.65,-37.29 34.62,-10.24 71.41,-15.34 110.89,-15.34 59.47,0 111.62,8.52 156.46,25.82 45.1,17.06 78.23,40.47 99.68,69.71 21.21,29.49 36.08,68.72 44.13,117.94l-125.76 17.56c-5.62,-39.48 -22.18,-70.44 -49.48,-92.6 -27.31,-22.18 -65.8,-33.16 -115.78,-33.16 -58.72,0 -100.88,9.75 -125.99,29.24 -25.11,19.52 -37.78,42.41 -37.78,68.49 0,16.58 5.12,31.69 15.6,45.09 10.47,13.64 26.8,25.11 49.24,34.12 12.91,4.87 50.44,15.84 113.32,32.9 90.67,24.12 154.03,44.11 190.09,59.47 36.08,15.36 64.35,38.02 84.82,67.26 20.72,29.49 30.96,66.05 30.96,109.92 0,42.64 -12.44,82.85 -37.55,120.64 -25.08,37.78 -61.17,67.02 -108.2,87.73 -47.29,20.72 -100.65,30.96 -160.12,30.96 -98.45,0 -173.77,-20.48 -225.43,-61.18 -51.68,-40.95 -84.58,-101.38 -98.95,-181.57z"/>
   <path class="fil1" d="M4773.17 15545.37l-3.65 -2.17c2.83,3.05 4.21,4.17 3.65,2.17z"/>
   <polygon class="fil1" points="5865.47,16432.31 5414.75,16186.47 5873.18,17622.04 6290.47,17622.04 6326.37,17507.8 6013.97,16360.56 "/>
   <path class="fil1" d="M5715.04 14341.77c109.04,-65.9 182.26,-185.17 182.26,-321.87 0,-207.73 -168.5,-376.17 -376.26,-376.17 -207.7,0 -376.21,168.45 -376.21,376.17 0,140.34 77.01,262.56 190.92,327.22l-1241.82 834c0,0 -502.21,-385.65 -662.68,-509.39 78.92,-30.69 160.33,-85.07 223.72,-175.03 -108.13,-19 -137.23,-60.76 -149.75,-113.88 -28.87,-113.4 20.16,-384.47 -320.09,-416.79 -340.19,32.32 -291.15,303.39 -320.11,416.79 -12.43,53.09 -41.59,94.88 -149.66,113.88 63.11,89.48 143.83,143.7 222.4,174.54l-1105.21 824.81 182.13 295.99 715.18 -544.1 -483.08 1491.38 259.72 -26.44 -262.76 909.16 407.85 0 244.52 -948.76 329.23 -29.92 345.48 978.68 422.47 0 -70.47 -190.62 -117.54 -12.91 68.4 -120 -258.04 -698.53 260.62 -26.52 -347.64 -1384.69 401.5 263.67 158.78 103.78 377.49 -224.53 524.38 -334.24 -52.89 877.58c649.06,-288.5 692.29,511.24 1021.08,302.57l-43.72 -222.45 0 -922.01c158.26,113.08 395.79,281.56 557.22,395.42 11.82,-139.57 104.73,-258.98 236.63,-306.46 -305.86,-241.3 -688.22,-535.71 -994.05,-780.33z"/>
   <path class="fil1" d="M3181.08 13965.44c1.38,0.14 2.62,0.42 4.05,0.6 1.44,-0.18 2.62,-0.46 4.06,-0.6l-8.11 0z"/>
   <path class="fil3" d="M7216.66 15940l459.14 -121.41 -125.25 -345.23c-170.99,33.38 -341.91,63.26 -512.86,96.56 28.1,-48.43 45.42,-103.95 45.42,-163.98 0,-79.44 -29.35,-151.34 -76.31,-208.15 -3.45,-4.6 -7.18,-8.84 -10.91,-13.18 -4.8,-5.26 -9.3,-10.61 -14.43,-15.54 -27.18,-27.64 -60.05,-50.35 -98.78,-65.92 -1.34,-0.6 -2.81,-0.85 -4.29,-1.45 -13.45,-5.15 -27.18,-9.68 -42.03,-13.03 -26.46,-6.89 -53.72,-11.64 -82.3,-11.64 -29.99,-0.02 -58.43,5.29 -86.09,12.82 -0.47,0.11 -0.96,0.14 -1.43,0.19 -1.86,0.58 -3.52,1.32 -5.23,1.9l-0.12 0.02c-136.08,40.31 -236.04,164.87 -236.04,313.98 0,115.93 60.31,217.3 150.9,275.91l-759.53 481.97c-193.45,-155.53 -383.21,-311.17 -576.68,-466.62 0,0 144.18,-26.62 189.76,-110.1 -53.14,-15.13 -86.49,-53.64 -72.12,-125.26 22.75,-87.15 37.95,-345.26 -220.08,-364.15 -65.31,-6.75 -115.14,4.56 -153.57,26.38 -113.57,64.45 -126.31,221.39 -134.83,280.91 -9.07,37.58 -64.49,79.73 -129.05,30.32 -6.19,31.33 36.52,93.51 49.57,107.9l3.65 2.18c0.56,1.99 -0.82,0.89 -3.65,-2.18l-603.46 -350.72 -209.98 276.3 697.2 459 -597.24 562.38 0.76 0.24 -8.52 7.82 255.05 108.3 -448.44 786.69 311.17 34.17 506.12 -664.15 44.79 19.03 5.5 -40.44 266.61 115.05 18.65 765.17 230.95 0 42.21 -600.2 198.2 84.21 -102.63 -835.93 497.05 220.04 591.87 -299.72 -222.55 1431.6 368.03 0 173.26 -725.82 314.97 -98.66 470.48 591.8 296.03 -242.74 -648.94 -1206.62z"/>
  </g>
 </g>
</svg>
